<svg width="32" height="32" viewBox="0 0 32 32" fill="none" xmlns="http://www.w3.org/2000/svg">
<path opacity="0.4" d="M28.1199 28.6667C28.1199 29.0401 27.8265 29.3334 27.4532 29.3334H4.54655C4.17322 29.3334 3.87988 29.0401 3.87988 28.6667C3.87988 23.1467 9.31988 18.6667 15.9999 18.6667C17.3732 18.6667 18.7066 18.8534 19.9332 19.2134C19.1466 20.1467 18.6665 21.3601 18.6665 22.6667C18.6665 23.6667 18.9465 24.6134 19.4399 25.4134C19.7065 25.8667 20.0532 26.28 20.4532 26.6267C21.3865 27.48 22.6265 28.0001 23.9999 28.0001C25.4932 28.0001 26.8399 27.3867 27.7999 26.4001C28.0132 27.1201 28.1199 27.8801 28.1199 28.6667Z" fill="url(#paint0_linear_2005_78)"/>
<path d="M27.9598 19.1066C26.9998 18.0133 25.5732 17.3333 23.9998 17.3333C22.5065 17.3333 21.1465 17.9466 20.1732 18.9466C19.2398 19.9066 18.6665 21.2266 18.6665 22.6666C18.6665 23.6666 18.9465 24.6132 19.4398 25.4132C19.7065 25.8666 20.0532 26.2799 20.4532 26.6265C21.3865 27.4799 22.6265 27.9999 23.9998 27.9999C25.9465 27.9999 27.6399 26.9599 28.5599 25.4132C28.8399 24.9599 29.0532 24.4399 29.1732 23.9066C29.2798 23.5066 29.3332 23.0933 29.3332 22.6666C29.3332 21.3066 28.8132 20.0533 27.9598 19.1066ZM25.9998 23.6399H24.9998V24.6799C24.9998 25.2266 24.5465 25.6799 23.9998 25.6799C23.4532 25.6799 22.9998 25.2266 22.9998 24.6799V23.6399H21.9998C21.4532 23.6399 20.9998 23.1866 20.9998 22.6399C20.9998 22.0932 21.4532 21.6399 21.9998 21.6399H22.9998V20.6933C22.9998 20.1466 23.4532 19.6933 23.9998 19.6933C24.5465 19.6933 24.9998 20.1466 24.9998 20.6933V21.6399H25.9998C26.5465 21.6399 26.9998 22.0932 26.9998 22.6399C26.9998 23.1866 26.5465 23.6399 25.9998 23.6399Z" fill="url(#paint1_linear_2005_78)"/>
<path d="M16.0002 16.0001C19.6821 16.0001 22.6668 13.0153 22.6668 9.33341C22.6668 5.65152 19.6821 2.66675 16.0002 2.66675C12.3183 2.66675 9.3335 5.65152 9.3335 9.33341C9.3335 13.0153 12.3183 16.0001 16.0002 16.0001Z" fill="url(#paint2_linear_2005_78)"/>
<defs>
<linearGradient id="paint0_linear_2005_78" x1="15.9999" y1="18.6667" x2="15.9999" y2="29.3334" gradientUnits="userSpaceOnUse">
<stop stop-color="white"/>
<stop offset="1" stop-color="#999999" stop-opacity="0.5"/>
</linearGradient>
<linearGradient id="paint1_linear_2005_78" x1="23.9998" y1="17.3333" x2="23.9998" y2="27.9999" gradientUnits="userSpaceOnUse">
<stop stop-color="white"/>
<stop offset="1" stop-color="#999999" stop-opacity="0.5"/>
</linearGradient>
<linearGradient id="paint2_linear_2005_78" x1="16.0002" y1="2.66675" x2="16.0002" y2="16.0001" gradientUnits="userSpaceOnUse">
<stop stop-color="white"/>
<stop offset="1" stop-color="#999999" stop-opacity="0.5"/>
</linearGradient>
</defs>
</svg>
